/* XPM */
static char *download1703777127[] = {
/* columns rows colors chars-per-pixel */
"64 64 252 2 ",
"   c #010001",
".  c #FB7439",
"X  c #F61E75",
"o  c #DA3B7C",
"O  c #DD2B73",
"+  c #F83868",
"@  c #EB2679",
"#  c #F82979",
"$  c #EA3777",
"%  c #F53C74",
"&  c #FA3C73",
"*  c #F6337E",
"=  c #FA347C",
"-  c #FA3878",
";  c #EE3369",
":  c #F03D5B",
">  c #F7594B",
",  c #F74B5A",
"<  c #FB535C",
"1  c #FC5B5C",
"2  c #F85957",
"3  c #F15350",
"4  c #F56B4B",
"5  c #FD6D4D",
"6  c #F96844",
"7  c #FD7445",
"8  c #FA7B44",
"9  c #FD734B",
"0  c #FD7C4A",
"q  c #F47547",
"w  c #FD6454",
"e  c #FC6A53",
"r  c #FC625B",
"t  c #F66859",
"y  c #FC7755",
"u  c #EA6954",
"i  c #DD4A7B",
"p  c #EB4867",
"a  c #FC4C64",
"s  c #FB446C",
"d  c #FC4B6C",
"f  c #F54768",
"g  c #EC566A",
"h  c #FC5364",
"j  c #F35C62",
"k  c #FC526A",
"l  c #F75764",
"z  c #E54978",
"x  c #FB4373",
"c  c #F64774",
"v  c #E55272",
"b  c #E95677",
"n  c #F55675",
"m  c #FB6765",
"M  c #FA7665",
"N  c #F36C79",
"B  c #FB863D",
"V  c #FD844B",
"C  c #FD8C4D",
"Z  c #FA8747",
"A  c #FD934C",
"S  c #FB974A",
"D  c #FE8C52",
"F  c #FB8A57",
"G  c #FD9453",
"H  c #FE9C52",
"J  c #FE925B",
"K  c #E78949",
"L  c #FDA64C",
"P  c #FDA354",
"I  c #FDAC55",
"U  c #FFAD5A",
"Y  c #FAA659",
"T  c #FCB355",
"R  c #FEB45A",
"E  c #FDBB5A",
"W  c #FAB855",
"Q  c #FBB14C",
"!  c #F58865",
"~  c #F49773",
"^  c #F8A76A",
"/  c #F6B172",
"(  c #FDC35D",
")  c #FECA5E",
"_  c #F7CC5C",
"`  c #FED65C",
"'  c #FCC64D",
"]  c #FECD62",
"[  c #FBC661",
"{  c #FED463",
"}  c #FEDB64",
"|  c #FAD769",
" . c #F1D273",
".. c #FEE363",
"X. c #FDE967",
"o. c #B83DA5",
"O. c #BA2CB6",
"+. c #AA37B7",
"@. c #B538B9",
"#. c #B031A9",
"$. c #EF1E83",
"%. c #D83A88",
"&. c #DA2995",
"*. c #CA3799",
"=. c #D33A9C",
"-. c #D73699",
";. c #D22E8B",
":. c #ED2887",
">. c #FB2B82",
",. c #F62787",
"<. c #E73986",
"1. c #F53283",
"2. c #FB3383",
"3. c #F4328C",
"4. c #F73689",
"5. c #EB289A",
"6. c #F22D94",
"7. c #F42A97",
"8. c #E53698",
"9. c #F33092",
"0. c #F1319C",
"q. c #FE3591",
"w. c #DB2EA5",
"e. c #C738A2",
"r. c #DA35A3",
"t. c #C229BA",
"y. c #ED2FA4",
"u. c #ED2EAB",
"i. c #EB26A7",
"p. c #F22BA7",
"a. c #ED32A4",
"s. c #EC31AA",
"d. c #E534A7",
"f. c #F032A2",
"g. c #F333A9",
"h. c #EB2FB3",
"j. c #E52CBC",
"k. c #E82FBA",
"l. c #E427B5",
"z. c #EB31B3",
"x. c #E632B7",
"c. c #F42AB0",
"v. c #9E44BE",
"b. c #AD41AE",
"n. c #B240AC",
"m. c #BC40A5",
"M. c #A343BD",
"N. c #A942B6",
"B. c #B441BD",
"V. c #AC5BB3",
"C. c #B973BB",
"Z. c #D64888",
"A. c #C84196",
"S. c #D74396",
"D. c #D25093",
"F. c #F4578A",
"G. c #F15196",
"H. c #EE4889",
"J. c #E76798",
"K. c #E77B98",
"L. c #F06F93",
"P. c #CD4FB1",
"I. c #D64EB7",
"U. c #C852B2",
"Y. c #CE51A6",
"T. c #E94EB8",
"R. c #EC51A7",
"E. c #D774A9",
"W. c #CE70B4",
"Q. c #EB69A9",
"!. c #F26AA4",
"~. c #EC69B8",
"^. c #EF77AB",
"/. c #AC3EC6",
"(. c #BB3CC3",
"). c #B33CCB",
"_. c #B73BC7",
"`. c #AF3ED2",
"'. c #BB38D4",
"]. c #B939D6",
"[. c #C925C6",
"{. c #C539CA",
"}. c #DF2DDD",
"|. c #DB2AD5",
" X c #C935D9",
".X c #D633D9",
"XX c #D325CF",
"oX c #E52EC4",
"OX c #E32DCB",
"+X c #E325C3",
"@X c #E534C5",
"#X c #E22DD4",
"$X c #E12DDA",
"%X c #E030D3",
"&X c #DC2DE4",
"*X c #D52EE9",
"=X c #D82DE8",
"-X c #CC32E4",
";X c #C635E7",
":X c #D231E5",
">X c #D030EA",
",X c #CE2BE6",
"<X c #E41EC7",
"1X c #8D48CB",
"2X c #9446C5",
"3X c #9C45C4",
"4X c #9747CB",
"5X c #A443C2",
"6X c #A442CA",
"7X c #AA42C7",
"8X c #BA78CD",
"9X c #DB49C3",
"0X c #D346D0",
"qX c #E54EC4",
"wX c #C972C9",
"eX c #D171CE",
"rX c #D271D3",
"tX c #D66CD4",
"yX c #E967C6",
"uX c #E664D6",
"iX c #F769E3",
"pX c #F29595",
"aX c #F28E8C",
"sX c #EDA693",
"dX c #F2B897",
"fX c #F5B18C",
"gX c #EC90AE",
"hX c #F0ACB1",
"jX c #D8ABB2",
"kX c #F6C58F",
"lX c #F3CCAC",
"zX c #F0B1CE",
"xX c #E8A3CD",
"cX c #FCD4D6",
"vX c #F2CCD0",
"bX c #F3ECD4",
"nX c #F8D8E8",
"mX c #F5D7F4",
"MX c #EECEE7",
"NX c #F6F5ED",
"BX c #F9F5EC",
"VX c #F8ECF8",
"CX c #EDFEFE",
"ZX c #ECFFF7",
"AX c #F6F4F4",
"SX c #FBF4F3",
"DX c #FCFCF5",
"FX c #FBF5FC",
"GX c #F4FEFD",
"HX c #FCFDFD",
"JX c #F3FBF6",
"KX c #F0F0EA",
/* pixels */
"                                                                                                                                ",
"                                                                                                                                ",
"Q I T W E E ( [ { { { } } } ....| | { { { ) ) ( E R W T I P L P G G D C V V 0 8 9 e e w w w r 2 < h h a s d x x - - * * 1.* 4.4.",
"Y U R R E [ [ ] ` ` } ` ....X.X...} } } ) ) ( ( E E R U U P H H H G D C V 0 0 9 7 5 e w w r 1 1 2 2 < a f f f c x 4.* 1.* 1.4.9.",
"U R R E [ ( _ _ { { } ..X.X.X.X...} } { ] ) ( ( E W W I I P P H A A C C V V 0 7 7 9 4 e w r 1 1 k k d d s x & & & - = * >.>.4.9.",
"I U R E ( [ ] { ` { } ....X.X.X...} } { ] ] ( [ E W T I P Y H H G G D V V y 9 9 9 9 e w r 1 1 1 l , l f f s f + & - # * * 2.4.3.",
"I U R E E ( [ ) ` { } ..........} } { { ] ] ( E E R R I P P H G A C C V V 0 0 7 5 e e r r 2 1 h k k k d x x x % - = * 2.2.2.3.3.",
"I T R E ( ( ) ] { { } ........} } } { ] ] [ [ E E R T I I P H G D G D V 0 0 y 9 9 e w w w 1 1 < h a a f d x % - - # >.>.3.>.3.6.",
"U U W E E ( ) ] ` ` } } ` ..| | { { ) ] [ [ E E Q Q Q L L S A A A Z Z Z 7 7 9 9 e w w w 1 1 < < , a f & f + & & - = * 1.1.3.9.9.",
"I R R E ( ( ( ] { ' |  .} ` ) | | ] { ] [ [ E E / / ^ ^ ^ ~ Y ^ J J F F F V y y M y M m m m l m n n n n n % + - = * # 1.>.3.9.q.",
"I U W R W ( ( ] [  .bXBXDXDXBXHXDXDXDXDXSXSXSXSXBXBXBXNXBXBXBXSXNXSXBXBXSXSXSXSXNXSXSXBXVXNXAXAXBXSXSXSXKXzXz = = = * 1.1.,.9.9.",
"U T W W W E ( [ ' kXGXGXFXHXHXDXHXHXHXHXHXHXHXHXDXDXHXHXDXDXHXDXGXHXGXDXGXDXHXHXGXHXHXHXHXHXHXGXDXHXHXHXHXGXL.# = * * >.3.3.9.9.",
"I I T R E E E [ ' kXGXDXGXJXGXGXGXHXGXHXGXJXGXGXHXGXGXHXGXGXGXHXHXHXDXDXHXDXHXHXHXHXGXHXHXHXFXFXGXGXHXGXFXGX!.# = * 1.1.3.9.3.6.",
"Y I I W R W E E E kXGXDXSXlXkXkXkXdXkXdXkXdXdXdXdXdXdXdXfXsXsXsXpXsXsXpXpXpXsXpXpXpXpXaXaXpXgXaXgXL.gXGXGXGX!.# 1.1.,.1.3.9.3.6.",
"P I I T T W W ( Q kXHXHXDX/ W W W T I I P I L S A A C Z Z Z Z . 7 7 . 6 6 6 > > 2 2 3 , f , , , + + F.HXJXGX!.# 2.1.1.3.3.9.9.6.",
"P P I I T T W W Q kXGXDXGXfXR W R R W U U I I P H H H A D D D V V V 9 9 9 e r w w r 1 h h d d x a f F.DXHXDX!.X * 1.1.1.9.9.9.6.",
"L P Y I I U U R Q kXDXGXDX/ I W ^ Q T Y P P Y H G G G Z C F 8 y 0 q 9 e 4 e w 4 r r 1 < l l f a f + F.HXHXGX!.# >.1.3.9.9.3.6.0.",
"H H P I I I U U L kXHXHXHX/ P W T U H H Y S P G G C H D Z . . . 6 6 q 6 4 w 1 j 1 2 < h a d k s f + F.HXHXGX!.# 1.1.3.9.9.6.0.0.",
"H H H P P Y U Y L fXHXGXDX/ P I L S ^ Y H H K H G Z 8 0 ! aXdXlXhXdXaXF t 2 1 1 t h h h k f s f s + F.GXJXGX!.,.3.1.3.9.9.6.6.0.",
"H H H H H P P Y L fXHXHXHX/ P P L H H H S G G B B F fXbXGXGXDXGXGXHXHXHXcXaXm 3 l < a h p d s s x # F.HXFXHX!.X 3.3.9.9.9.0.0.y.",
"G G G H H H P H S fXDXHXFX^ H H P H C A S A D K sXcXJXCXKXvXzXhXhXhXcXAXHXZXcXaXa h , g k f c & x # F.HXHXGX!.# 3.3.6.6.0.0.0.y.",
"C G G G S H H H S fXHXHXFX^ G H G S G J S Z F lXZXCXnXpXM w > > > > g b gXMXGXGXhXg d d a f + x - + G.HXHXGX!.$.3.9.9.6.6.0.a.y.",
"C G D A G A G G Z / HXHXDX^ C G G G K J V F lXHXVXhXt 6 q 8 4 e t t e r < v gXSXDXzXp x + x c x & # F.FXHXGX!.:.3.9.6.0.0.0.0.y.",
"V C C C A G G G Z fXFXGXAX^ C G S V D 8 V lXGXVX~ u q 9 4 u e 5 w r w > t 2 , L.FXZXzXc & c - - - = F.FXFXHX!.,.3.9.6.6.0.y.y.d.",
"V V V C C C D D Z / HXGXHX! D C V ! C . sXGXSXaX. 4 e q 5 6 w w r m 1 2 < m , f L.BXDXgX; c & 1.= # G.HXFXHXQ.$.6.6.0.0.0.f.a.y.",
"V V V V Z Z C C Z ~ HXHXHX~ V V 0 K 7 ! bXHXsXu 5 5 e 4 e e r r w 2 1 < h < k a ; gXCXnXF.& & 1.* # G.FXHXFXQ.7.9.6.6.0.a.a.s.s.",
"0 0 V V V V V V 8 fXHXHXHX! V 0 0 V 7 dXCXvXu 7 4 e w t u r 1 1 1 1 h a k g d a f $ vXHXgX+ = = 2.# G.GXHXHXQ.,.0.9.0.a.f.f.u.u.",
"0 7 0 8 0 0 V 0 7 ~ HXDXGX! q 0 0 7 F nXFXaX6 7 5 m bXbXaX2 t 2 r 2 , hXKXzXs a x + J.HXnXH.# * 1.>.G.HXHXHX~.$.0.0.0.a.y.u.u.u.",
"7 9 7 0 7 0 y 0 7 ~ HXHXHX! 9 7 9 7 aXHXnXt 4 4 6 aXHXHXvX3 r m < h g KXGXHXF.s f & $ nXHX!.# 1.1.>.G.FXHXHXQ.7.0.0.f.f.u.s.h.u.",
"9 9 9 7 9 9 9 9 . aXHXHXHX! 4 9 9 6 dXGXlX> e r w N MXKXpX< < h l h d jXJXzXx f s & # jXGXgX@ 2.3.,.G.GXHXHXQ.7.f.f.f.y.u.u.h.h.",
"e 5 5 5 9 5 5 9 6 ~ HXHXHX! 4 e 5 > hXJXhXw r 1 1 j v L., < h a h d n ; F.% % c - - ; gXFXzX@ 1.9.,.G.FXDXHXQ.5.f.a.s.u.s.c.h.h.",
"5 e 5 5 5 5 4 9 6 aXHXHXHXM 4 w 9 2 cXGXL.> r w 1 r 1 3 < h < l < a f c + s & = * = # !.HXzX# 4.9.,.G.GXHXFX~.5.g.f.y.s.h.h.h.h.",
"w e e e e e e e w aXHXHXGXM w r w > cXGXaX> r m h < j < l f k a f f d d & % - = 4.$ # !.GXzX:.3.4.:.R.FXHXHX~.5.p.g.u.s.h.h.x.x.",
"w w w w e e e w > aXHXHXHXM > r r > zXHXaX3 j < 3 h g g a a d p c s + ; c % # H.# = @ ^.HXzX$.4.3.,.R.GXDXHXyX5.f.s.s.s.x.h.k.l.",
"r r t r r r w r > aXHXHXHXM t 2 1 > hXFXhX3 < h m : gXbXv s : d f x X gXcXH.- ; 2.1.@ gXHXxX$.9.6.:.R.FXHXHXT.5.g.s.u.u.x.x.j.k.",
"m j 1 m 2 2 1 m , ~ HXHXHXN > 2 1 , aXFXcXa , , , x K.JXcXn + + + ; K.GXMX* # 2.* 9.:.vXHX~.,.q.9.7.R.FXDXHXyXi.z.s.z.h.k.k.j.j.",
"g j g j 1 2 j j , aXDXHXHXN 3 l 2 < n FXDXN + l a d + K.GXJXzXgXgXvXHXMX<.# 4.>.* ,.G.FXAX8.5.9.0.7.R.FXDXHX~.i.z.z.h.z.k.k.oXoX",
"g g g j g g g j , K.DXHXHXN j l j a p zXCXhX+ k f p f - D.zXHXHXHXmXgXo # 2.4.1.1.$.xXCXzX:.9.6.0.5.T.JXHXHXyXi.z.z.k.k.j.oXoXoX",
"v v v v g g g b p aXGXHXFXN g g k d a L.SXHXL.p s & x & - O o H.Z.* @ * * 1.>.3.# Q.FXFXR.0.8.0.a.5.T.HXDXHXyXi.z.h.z.k.j.oXoXOX",
"v v v v v v z b p K.GXHXFXN p c p g p : zXGXcXc + c c x + f * >.,.1.>.2.$ # q.<.4.mXGXxX:.0.8.g.f.5.R.HXDXHXyXi.z.z.k.j.oXoXoXOX",
"i i i i b v v i z K.DXGXDXJ.; z z & H.p i cXCXMX= ; c % % * * 1.4.# 2.1.1.q.,.4.vXGXmX;.0.0.0.8.0.p.T.JXHXFX~.l.k.k.j.oXoXoXoX#X",
"Z.i i v D.i i i z E.DXHXDXJ.z z z i c $ * Z.nXHXnX!.X # 2.= 2.1.; 4.3.q.7.X R.nXGXmXS.7.a.a.0.p.a.p.qXJXFXFXyXl.k.oXoXoXoXoXOX#X",
"Z.Z.Z.Z.Z.i D.i o K.DXHXDXD.$ H.$ z Z.$ 4.<.Z.nXGXFXjXG.# @ ,.# >.,.:.:.G.xXGXGXmXS.7.f.8.s.s.y.d.p.T.JXHXGXyXl.k.k.oXoX@XOXOX#X",
"Z.Z.Z.Z.D.Z.Z.Z.o E.HXHXHXJ.i %.H.o o H.o %.<.Z.jXFXGXFXzXgXQ.G.R.E.gXzXFXGXFXxX8.7.0.a.g.5.d.z.s.i.T.JXHXGXyXl.@XoX@XoXOXOXOX#X",
"A.Z.Z.Z.Z.Z.Z.Z.%.E.HXHXFXJ.%.Z.<.Z.<.%.Z.1.<.;.O E.xXVXHXHXHXGXHXHXGXGXHXxXR.&.5.a.y.g.y.y.s.h.z.i.qXDXHXGXyX<XoXoXOXoXOXOX#X$X",
"A.*.A.A.A.Z.A.A.;.E.HXGXFXD.%.S.S.<.%.%.%.%.8.<.8.;.;.R.~.xXMXMXMXMXzXyXR.5.&.a.g.y.y.y.g.u.s.p.x.l.T.JXHXHXuXl.@XOXOX#X#X#X#X$X",
"A.A.A.A.A.A.A.A.*.E.HXHXFXY.*.=.S.-.8.;.A.S.&.%.-.8.8.-.-.;.;.r.&.-.&.&.w.s.y.d.a.g.d.s.y.z.i.x.x.c.qXGXFXGXuX+XOXoX#XOX#X#X$X$X",
"o.A.A.m.A.A.A.A.*.W.HXHXHXY.;.=.*.A.-.-.-.-.-.=.-.-.-.r.r.&.d.-.-.a.8.d.&.d.d.y.-.g.i.x.u.c.x.x.x.l.qXJXHXDXuX+XOXOXOX#X#X$X$X}.",
"A.o.A.o.A.A.m.A.A.W.GXHXFXY.*.A.*.*.=.e.e.=.r.*.r.=.-.r.-.r.r.r.r.r.d.w.d.d.d.x.x.r.x.d.z.k.k.k.@X+XqXZXGXHXuX+X|.%X#X#X$X$X&X$X",
"o.o.o.o.o.m.o.m.#.C.GXJXHXY.*.o.*.*.*.*.*.=.*.*.e.e.w.e.r.=.r.r.=.=.w.w.w.w.w.d.w.l.w.x.l.j.l.l.l.<XqXDXFXHXuX|.%X%X%X$X$X$X$X&X",
"b.o.n.n.o.o.n.o.#.W.JXDXVXW.Y.V.U.U.U.U.U.P.U.P.P.P.P.P.P.P.P.I.I.I.I.I.I.I.I.I.9X9X9X9X9X9XI.9XT.@XyXVXGXHXiX<X%X.X#X$X$X&X&X&X",
"b.n.n.n.n.n.n.b.*.W.JXSXDXVXAXSXAXAXDXAXAXAXFXAXFXAXFXFXFXFXFXFXAXVXAXAXSXFXSXAXAXJXAXAXAXAXAXSXZXFXVXGXFXKXuX|.|.%X#X$X&X&X&X&X",
"b.b.b.b.b.b.b.b.#.C.HXFXHXGXGXSXFXDXDXDXHXDXDXHXDXDXDXDXDXDXDXDXFXDXHXHXHXDXHXDXHXHXHXHXHXHXHXHXDXHXGXHXFXJXuXXX$X$X&X&X&X&X&X=X",
"b.b.N.b.b.b.b.b.+.V.mXGXDXHXDXDXHXJXHXHXDXHXDXDXGXHXHXDXHXHXHXDXJXHXHXHXHXDXHXHXHXHXHXHXFXHXHXHXDXHXJXCXGXmX0X|.&X$X&X&X&X&X=X=X",
"v.N.v.N.v.b.b.b.M.+.V.8XC.8XwXwXwXwXwXwXwXwXwXwXwXwXwXwXwXwXwXwXeXeXeXeXeXeXtXtXeXeXeXeXrXrXrXeXrXtXuXtXtX0X&X=X&X&X&X=X=X&X=X=X",
"v.v.v.N.v.v.v.v.N.N.v.+.O.+.v.+.+.+.+.#.+.+.@.#.O.O.@.O.O.O.O.O.t.O.t.O.O.t.t.t.[.t.[.[.[.[.[.[.XX[.XX,XXXXX.XXX=X&X&X=X&X=X=X=X",
"v.v.3Xv.v.v.v.M.3XM.5X5XM.5X5X7XM.B.B.B.B.B.B.B.B.B.B.7X(.U.t.B.(.{.{.(.(.{.{.{.{.{.{.{..X{..X.X.X.X X.X.X:X:X>X=X=X=X=X=X=X=X=X",
"2X2Xv.v.3Xv.M.M.v.v.5XM.M.M.M.M.+.5X5X5X5X5X7X7X7X7X@._.).7X7X/.(.(.(.{.(.{.(.(.{.{.{.{.{..X{. X X X X X X:X X>X=X=X:X:X*X*X=X=X",
"1X1X2X2X2X2X2X2X2X3X3X3X3X3X5X5XM.M.5X+.M.+.7X+.@.B./.@._._._._._._._._._._.{._.'.'.]. X'.'. X X X-X X-X-X:X>X>X*X>X*X*X*X*X=X*X",
"1X1X1X1X2X1X4X4X2X4X2X3X3X3X6X3X4X6X4X6X6X7X7X7X7X7X7X/.7X_.).`.7X7X).).).].'.'.'.'.].'. X X X'.-X X-X;X;X>X;X>X>X>X>X*X*X=X=X=X",
"1X1X1X1X1X1X1X1X1X4X1X4X4X4X4X3X4X3X3X6X/.4X3X6X7X7X7X6X/.`./.`._._.).)._.].).'.].].).].].]. X]. X].;X;X;X;X;X;X-X-X-X>X>X:X>X:X",
"1X1X1X1X1X1X1X1X4X1X4X4X4X4X4X4X6X4X4X6X4X6X6X6X7X6X6X7X7X7X6X6X`.`.`.`.`.].].`.].].].].;X].].].;X;X;X;X;X;X;X;X-X-X:X>X>X:X>X:X",
"                                                                                                                                ",
"                                                                                                                                "
};
